<svg xmlns:dc="http://purl.org/dc/elements/1.1/" xmlns:cc="http://creativecommons.org/ns#" xmlns:rdf="http://www.w3.org/1999/02/22-rdf-syntax-ns#" xmlns:svg="http://www.w3.org/2000/svg" xmlns="http://www.w3.org/2000/svg" xmlns:sodipodi="http://sodipodi.sourceforge.net/DTD/sodipodi-0.dtd" xmlns:inkscape="http://www.inkscape.org/namespaces/inkscape" version="1.1" x="0px" y="0px" viewBox="0 0 100 125"><g transform="translate(0,-952.36218)"><path style="text-indent:0;text-transform:none;direction:ltr;block-progression:tb;baseline-shift:baseline;color:#000000;enable-background:accumulate;" d="m 50,977.36217 c -13.7953,0 -25,11.2048 -25,25.00003 0,13.7951 11.2047,25 25,25 13.7953,0 25,-11.2049 25,-25 0,-13.79523 -11.2047,-25.00003 -25,-25.00003 z m 0,2 c 12.7144,0 23,10.2857 23,23.00003 0,12.7142 -10.2856,23 -23,23 -12.7144,0 -23,-10.2858 -23,-23 0,-12.71433 10.2856,-23.00003 23,-23.00003 z m 0,9 c -0.5523,0 -1,0.4477 -1,1 l 0,13.00003 c 0,0.2762 0.10035,0.5377 0.28125,0.7188 l 7.78125,7.7812 c 0.3905,0.3905 1.047,0.3905 1.4375,0 0.3905,-0.3905 0.3905,-1.047 0,-1.4375 l -7.5,-7.5 0,-12.56253 c 0,-0.5523 -0.4477,-1 -1,-1 z" fill="#000000" fill-opacity="1" stroke="none" marker="none" visibility="visible" display="inline" overflow="visible"/>
</g>
<!-- <text x="0" y="115" fill="#000000" font-size="5px" font-weight="bold" font-family="'Helvetica Neue', Helvetica, Arial-Unicode, Arial, Sans-serif">Created by Aybige</text><text x="0" y="120" fill="#000000" font-size="5px" font-weight="bold" font-family="'Helvetica Neue', Helvetica, Arial-Unicode, Arial, Sans-serif">from the Noun Project</text> -->
</svg>
