<svg xmlns="http://www.w3.org/2000/svg" data-name="Layer 1" viewBox="0 0 100 125" x="0px" y="0px"><title>Artboard 8</title><path d="M77.63,89.51H24.37A12.9,12.9,0,0,1,11.49,76.63V23.37A12.9,12.9,0,0,1,24.37,10.49H77.63A12.9,12.9,0,0,1,90.51,23.37V76.63A12.9,12.9,0,0,1,77.63,89.51Zm-53.26-74a7.88,7.88,0,0,0-7.88,7.88V76.63a7.88,7.88,0,0,0,7.88,7.88H77.63a7.88,7.88,0,0,0,7.88-7.88V23.37a7.88,7.88,0,0,0-7.88-7.88Z"/><path d="M51,66.62A16.62,16.62,0,1,1,67.62,50,16.63,16.63,0,0,1,51,66.62Zm0-28.24A11.62,11.62,0,1,0,62.62,50,11.63,11.63,0,0,0,51,38.38Z"/><circle cx="74.9" cy="26.38" r="4.38"/><rect x="13.99" y="43.5" width="23.57" height="4"/><rect x="63.99" y="43.5" width="23.57" height="4"/>
<!-- <text x="0" y="115" fill="#000000" font-size="5px" font-weight="bold" font-family="'Helvetica Neue', Helvetica, Arial-Unicode, Arial, Sans-serif">Created by Jorge Mallo</text><text x="0" y="120" fill="#000000" font-size="5px" font-weight="bold" font-family="'Helvetica Neue', Helvetica, Arial-Unicode, Arial, Sans-serif">from the Noun Project</text> -->
</svg>
