<svg xmlns="http://www.w3.org/2000/svg" viewBox="0 0 20 17.5" x="0px" y="0px"><g transform="translate(-2 -6)"><path d="M20.5,6H3.5A1.5,1.5,0,0,0,2,7.5v11A1.5,1.5,0,0,0,3.5,20h17A1.5,1.5,0,0,0,22,18.5V7.5A1.5,1.5,0,0,0,20.5,6ZM19,7l-6.79,5.28a.47.47,0,0,1-.44,0L5,7Zm2,11.5a.5.5,0,0,1-.5.5H3.5a.5.5,0,0,1-.5-.5V7.5A.49.49,0,0,1,3.36,7l7.89,6.11a1.43,1.43,0,0,0,.73.2,1.62,1.62,0,0,0,.83-.24L20.64,7a.49.49,0,0,1,.36.5Z"/></g>
<!-- <text x="0" y="29" fill="#000000" font-size="5px" font-weight="bold" font-family="'Helvetica Neue', Helvetica, Arial-Unicode, Arial, Sans-serif">Created by Dwiky Setiawan</text><text x="0" y="34" fill="#000000" font-size="5px" font-weight="bold" font-family="'Helvetica Neue', Helvetica, Arial-Unicode, Arial, Sans-serif">from the Noun Project</text> -->
</svg>
