<?xml version="1.0" encoding="UTF-8" standalone="no"?>
<svg width="514px" height="535px" viewBox="0 0 514 535" version="1.1" xmlns="http://www.w3.org/2000/svg" xmlns:xlink="http://www.w3.org/1999/xlink">
    <!-- Generator: Sketch 50.2 (55047) - http://www.bohemiancoding.com/sketch -->
    <!-- <title>noun_next arrow_1096245</title>
    <desc>Created with Sketch.</desc> -->
    <defs></defs>
    <g id="Page-1" stroke="none" stroke-width="1" fill="none" fill-rule="evenodd">
        <g id="noun_next-arrow_1096245" transform="translate(1.000000, 1.000000)">
            <g id="Group" stroke="#000000" stroke-width="0.1">
            </g>
            <g id="Group" transform="translate(6.000000, 6.000000)" fill-rule="nonzero">
                <path d="M73.2,426.8 C26,379.6 0,316.8 0,250 C0,183.2 26,120.4 73.2,73.2 C120.4,26 183.2,0 250,0 C316.8,0 379.6,26 426.8,73.2 C474,120.4 500,183.2 500,250 C500,316.8 474,379.6 426.8,426.8 C379.6,474 316.8,500 250,500 C183.2,500 120.4,474 73.2,426.8 Z M10,250 C10,382.3 117.7,490 250,490 C382.3,490 490,382.3 490,250 C490,117.7 382.3,10 250,10 C117.7,10 10,117.7 10,250 Z" id="Shape" fill="#F0F0F0"></path>
                <g transform="translate(104.000000, 180.000000)" fill="#BEBEBF">
                    <polygon id="Shape" points="222.8 131.9 284.7 70 222.8 8.1 230.8 0.2 300.5 70 230.8 139.8"></polygon>
                    <rect id="Rectangle-path" x="0.6" y="64.4" width="286.3" height="11.2"></rect>
                </g>
            </g>
            <!-- <text id="Created-by-SBTS" fill="#000000" font-family="Helvetica-Bold, Helvetica" font-size="5" font-weight="bold">
                <tspan x="0" y="527">Created by SBTS</tspan>
            </text> -->
            <!-- <text id="from-the-Noun-Project" fill="#000000" font-family="Helvetica-Bold, Helvetica" font-size="5" font-weight="bold">
                <tspan x="0" y="532">from the Noun Project</tspan>
            </text> -->
        </g>
    </g>
</svg>
