<svg xmlns="http://www.w3.org/2000/svg" xmlns:xlink="http://www.w3.org/1999/xlink" xml:space="preserve" version="1.1" style="shape-rendering:geometricPrecision;text-rendering:geometricPrecision;image-rendering:optimizeQuality;" viewBox="0 0 333 416.25" x="0px" y="0px" fill-rule="evenodd" clip-rule="evenodd"><defs><style type="text/css">

    .fil0 {fill:black;fill-rule:nonzero}

  </style></defs><g><path class="fil0" d="M150 78c8,13 4,30 -8,38l-17 13c-14,9 52,103 66,93l0 0c11,-8 23,-20 39,-17 7,1 14,5 18,12l17 22c8,13 8,35 -5,44 -34,24 -77,8 -115,-26 -29,-25 -54,-60 -69,-96 -18,-45 -20,-89 10,-115 4,-3 8,-6 14,-7 9,-2 20,2 28,9 7,6 17,21 22,30zm-46 -26c-5,0 -9,4 -13,7 -21,22 -18,59 -2,97 14,34 37,67 65,91 33,30 71,45 98,25 7,-5 6,-18 2,-25l-17 -23c-2,-3 -6,-5 -10,-6 -9,-2 -21,10 -28,15l0 0c-29,20 -111,-95 -82,-115l17 -13c7,-4 9,-12 5,-19 -6,-12 -20,-34 -35,-34z"/></g>
  <!-- <text x="0" y="348" fill="#000000" font-size="5px" font-weight="bold" font-family="'Helvetica Neue', Helvetica, Arial-Unicode, Arial, Sans-serif">Created by NOVITA ASTRI</text><text x="0" y="353" fill="#000000" font-size="5px" font-weight="bold" font-family="'Helvetica Neue', Helvetica, Arial-Unicode, Arial, Sans-serif">from the Noun Project</text> -->
</svg>
