<svg xmlns="http://www.w3.org/2000/svg" xmlns:xlink="http://www.w3.org/1999/xlink" version="1.1" x="0px" y="0px" viewBox="0 0 100 125" enable-background="new 0 0 100 100" xml:space="preserve"><g display="none"><rect x="-661.258" y="-853.241" display="inline" fill="#000000" width="1566.157" height="1272.127"/>
</g>
<g>
<path d="M50,16.5c-18.472,0-33.5,15.028-33.5,33.5S31.528,83.5,50,83.5c18.472,0,33.5-15.028,33.5-33.5S68.472,16.5,50,16.5z    M50,80.5c-16.818,0-30.5-13.683-30.5-30.5S33.183,19.5,50,19.5c16.817,0,30.5,13.683,30.5,30.5S66.818,80.5,50,80.5z"/><path d="M64.182,48.137H51.5V35.454c0-0.828-0.671-1.5-1.5-1.5s-1.5,0.672-1.5,1.5v12.683H35.818c-0.829,0-1.5,0.672-1.5,1.5   s0.671,1.5,1.5,1.5H48.5v12.682c0,0.828,0.671,1.5,1.5,1.5s1.5-0.672,1.5-1.5V51.137h12.682c0.829,0,1.5-0.672,1.5-1.5   S65.011,48.137,64.182,48.137z"/>
</g>
<!-- <text x="0" y="115" fill="#000000" font-size="5px" font-weight="bold" font-family="'Helvetica Neue', Helvetica, Arial-Unicode, Arial, Sans-serif">Created by Oksana Latysheva</text>
<text x="0" y="120" fill="#000000" font-size="5px" font-weight="bold" font-family="'Helvetica Neue', Helvetica, Arial-Unicode, Arial, Sans-serif">from the Noun Project</text> -->
</svg>
