<?xml version="1.0" encoding="UTF-8" standalone="no"?>
<svg width="154px" height="131px" viewBox="0 0 154 131" version="1.1" xmlns="http://www.w3.org/2000/svg" xmlns:xlink="http://www.w3.org/1999/xlink">
    <!-- Generator: Sketch 50.2 (55047) - http://www.bohemiancoding.com/sketch -->
    <title>twitter_icon</title>
    <desc>Created with Sketch.</desc>
    <defs></defs>
    <g id="Page-1" stroke="none" stroke-width="1" fill="none" fill-rule="evenodd">
        <g id="twitter_icon" fill="#000000" fill-rule="nonzero">
            <path d="M55.3957869,131 C26.5954201,131 3.07023388,116.778605 2.68586762,116.540442 C0.433875553,115.144399 -0.554142847,112.316842 0.310681238,109.76292 C1.18289698,107.216598 3.64678327,105.605195 6.28806936,106.008046 C21.8869334,108.15405 32.7502081,103.099412 38.5699075,99.1038411 C24.1463172,87.8645559 -8.14044872,56.1482864 11.6667331,9.12368482 C12.4822795,7.1854402 14.2809165,5.86540693 16.3234782,5.70071948 C18.3241539,5.55883491 20.3445406,6.55456058 21.44097,8.33571871 C22.0323027,9.28583862 35.9212297,30.7737506 70.6349236,35.2735185 C70.7137679,15.8099954 86.1327683,0 105.067734,0 C113.513937,0 121.474753,3.11639332 127.777374,8.83991567 C136.886362,7.84419 144.061199,7.62882949 144.393823,7.61616123 C145.145309,7.62376218 145.859836,7.72764196 146.507838,7.98100727 C147.727462,7.51988241 149.099846,7.48441126 150.420489,7.98860823 C153.278597,9.10088194 154.722435,12.3895637 153.640789,15.3286013 C152.578854,18.2245668 147.476145,31.442635 140.532914,38.2049551 C142.265026,54.6458301 138.295705,78.8143471 112.661432,105.959906 C94.5420122,125.142194 73.8823257,131 55.3957869,131 Z M29.2440979,115.813283 C49.1153408,121.91432 79.6010058,124.594925 104.705543,98.0219712 C128.930473,72.3661999 131.362329,50.5058409 129.139903,36.6923642 C128.772784,34.3918072 129.805153,32.0912502 131.746695,30.880164 C134.245076,29.3371693 137.312614,24.3788102 139.830706,19.2557636 C136.467501,19.4635231 131.672778,19.8359701 126.476442,20.4668498 C124.773897,20.6442055 123.046713,20.0513307 121.841872,18.7667685 C117.374846,14.016169 111.412242,11.4039726 105.065271,11.4039726 C92.1939286,11.4039726 81.719948,22.1821329 81.719948,35.423004 C81.719948,37.1534891 81.8850283,38.8079646 82.2250447,40.3357574 C82.5995554,42.0865117 82.1609836,43.9132756 81.0349876,45.2789146 C79.9015999,46.6445536 78.1842711,47.386914 76.4792618,47.2754332 C45.8728664,45.3751934 27.6179329,31.6883994 18.7257673,22.5799164 C6.52706633,66.9163121 48.5880691,92.5999536 50.5000449,93.7426311 C51.9364906,94.5964722 52.9319006,96.0811929 53.2004642,97.7660723 C53.4591723,99.4585525 52.9762506,101.181437 51.8724295,102.463465 C51.4190744,103.0006 43.7243576,111.701164 29.2440979,115.813283 Z" id="Shape"></path>
        </g>
    </g>
</svg>