<svg xmlns="http://www.w3.org/2000/svg" xmlns:xlink="http://www.w3.org/1999/xlink" xml:space="preserve" version="1.1" style="shape-rendering:geometricPrecision;text-rendering:geometricPrecision;image-rendering:optimizeQuality;" viewBox="0 0 572 715" x="0px" y="0px" fill-rule="evenodd" clip-rule="evenodd"><defs><style type="text/css">

    .fil0 {fill:black}

  </style></defs><g><rect class="fil0" x="243" y="186" width="14.9773" height="200.646"/><rect class="fil0" x="314" y="186" width="14.9773" height="200.646"/><path class="fil0" d="M286 0c158,0 286,128 286,286 0,158 -128,286 -286,286 -158,0 -286,-128 -286,-286 0,-158 128,-286 286,-286zm0 15c150,0 271,121 271,271 0,150 -121,271 -271,271 -150,0 -271,-121 -271,-271 0,-150 121,-271 271,-271z"/></g>
  <!-- <text x="0" y="587" fill="#000000" font-size="5px" font-weight="bold" font-family="'Helvetica Neue', Helvetica, Arial-Unicode, Arial, Sans-serif">Created by uzeir syarief</text><text x="0" y="592" fill="#000000" font-size="5px" font-weight="bold" font-family="'Helvetica Neue', Helvetica, Arial-Unicode, Arial, Sans-serif">from the Noun Project</text> -->
</svg>
