<svg xmlns="http://www.w3.org/2000/svg" xmlns:xlink="http://www.w3.org/1999/xlink" version="1.1" x="0px" y="0px" viewBox="-205 207 100 125" style="enable-background:new -205 207 100 100;" xml:space="preserve">
  <g>
  <path d="M-155,307c-27.6,0-50-22.4-50-50s22.4-50,50-50s50,22.4,50,50S-127.4,307-155,307z M-155,209.8c-26,0-47.2,21.2-47.2,47.2 s21.2,47.2,47.2,47.2s47.2-21.2,47.2-47.2S-129,209.8-155,209.8z"/>
<path d="M-163.9,279.3c-0.2,0-0.4-0.1-0.6-0.2c-0.5-0.2-0.8-0.7-0.8-1.3v-42.7c0-0.5,0.3-1,0.8-1.3c0.5-0.2,1-0.2,1.5,0.1 l29.2,21.4c0.4,0.3,0.6,0.7,0.6,1.1c0,0.5-0.2,0.9-0.6,1.1L-163,279C-163.3,279.2-163.6,279.3-163.9,279.3z M-162.5,238v37.1 l25.4-18.5L-162.5,238z"/>
</g>
</svg>
